/* XPM */
static char *result[] = {
/* columns rows colors chars-per-pixel */
"32 32 128 2 ",
"   c #EE072C",
".  c #EE0A2E",
"X  c #F10F25",
"o  c #F10C2D",
"O  c #EF122F",
"+  c #F41727",
"@  c #F51A27",
"#  c #F4132A",
"$  c #F41A29",
"%  c #F91C2B",
"&  c #EF0730",
"*  c #EE0D32",
"=  c #EF0E3A",
"-  c #F30D36",
";  c #F31235",
":  c #F91C33",
">  c #F21538",
",  c #F81B3C",
"<  c #F72527",
"1  c #FB202E",
"2  c #F72A29",
"3  c #FA2E2C",
"4  c #F93125",
"5  c #FA3B26",
"6  c #FC362D",
"7  c #FB392C",
"8  c #FB2334",
"9  c #FC2932",
"0  c #FC2B3A",
"q  c #FC3131",
"w  c #FB333B",
"e  c #FB3A3E",
"r  c #FB6B1F",
"t  c #FA4122",
"y  c #FB4B24",
"u  c #FB422C",
"i  c #FA4D2A",
"p  c #FB5224",
"a  c #FA5F27",
"s  c #FB532B",
"d  c #FB5B28",
"f  c #FC4632",
"g  c #FC4830",
"h  c #FB5532",
"j  c #FB5931",
"k  c #FB6524",
"l  c #F76B26",
"z  c #FB6B25",
"x  c #FB642B",
"c  c #FA6B2B",
"v  c #FC7324",
"b  c #FB7B26",
"n  c #FC7229",
"m  c #FC7B2D",
"M  c #FB7331",
"N  c #FB7931",
"B  c #FC3142",
"V  c #FB3F44",
"C  c #F13B4C",
"Z  c #EE3B54",
"A  c #F13D53",
"S  c #FB4145",
"D  c #F2424F",
"F  c #FB4548",
"G  c #F54C4F",
"H  c #F5524C",
"J  c #F65B4D",
"K  c #F95D53",
"L  c #F96842",
"P  c #F86D4A",
"I  c #F77A46",
"U  c #FA7A42",
"Y  c #F77348",
"T  c #F67767",
"R  c #EF6078",
"E  c #ED6E7D",
"W  c #F36C7B",
"Q  c #F5797E",
"!  c #FC8B1F",
"~  c #FC8526",
"^  c #FC8D23",
"/  c #FC8529",
"(  c #FC8D2B",
")  c #FC9120",
"_  c #FB942C",
"`  c #F68759",
"'  c #F68F5E",
"]  c #F89B55",
"[  c #F8A84E",
"{  c #F8A452",
"}  c #F58A60",
"|  c #F69B64",
" . c #F5926C",
".. c #F48575",
"X. c #F4877C",
"o. c #F59B70",
"O. c #F6A96A",
"+. c #F4B47C",
"@. c #EE7184",
"#. c #EF7488",
"$. c #EE7E8A",
"%. c #EE838D",
"&. c #F19E87",
"*. c #F39391",
"=. c #F2AB83",
"-. c #F2AB89",
";. c #F2AA95",
":. c #F0A99B",
">. c #F1BE96",
",. c #EC9FAC",
"<. c #EEABA7",
"1. c #ECA3AC",
"2. c #EFAAAB",
"3. c #F0ABA5",
"4. c #EFB4A7",
"5. c #ECA3B0",
"6. c #EEC2BC",
"7. c #EDC4C4",
"8. c #EBC6CB",
"9. c #ECCECE",
"0. c #ECD1C6",
"q. c #EDD1C9",
"w. c #EBD5D4",
"e. c #EBDDD6",
"r. c #EBDADA",
"t. c #EAE0DE",
"y. c #EAE4E4",
"u. c None",
/* pixels */
"u.u.u.u.u.u.u.u.u.u.u.u.u.y.y.y.y.y.y.u.u.u.u.u.u.u.u.u.u.u.u.u.",
"u.u.u.u.u.u.u.u.u.u.y.y.y.y.y.y.y.y.y.y.y.y.u.u.u.u.u.u.u.u.u.u.",
"u.u.u.u.u.u.u.u.y.y.y.y.y.y.y.y.y.y.y.y.y.y.y.y.u.u.u.u.u.u.u.u.",
"u.u.u.u.u.u.y.y.y.y.y.y.y.y.y.y.y.y.y.y.y.y.y.y.y.y.u.u.u.u.u.u.",
"u.u.u.u.u.y.y.y.y.y.y.y.y.y.y.y.y.y.y.y.y.y.y.y.y.y.y.u.u.u.u.u.",
"u.u.u.u.y.y.y.y.y.y.y.y.y.y.y.y.y.y.y.y.y.y.y.y.y.y.y.y.u.u.u.u.",
"u.u.u.y.y.y.y.y.y.y.y.y.y.y.y.y.y.y.y.y.y.y.y.y.y.y.y.y.y.u.u.u.",
"u.u.u.y.y.y.y.y.y.6.%.K f w w w V w w V F w V V F F *.y.y.u.u.u.",
"u.u.y.y.y.y.y.w.T i g u 3 6 6 q q 8 0 0 0 , 8 0 B #.7.e.y.y.u.u.",
"u.u.y.y.y.y.q.L h d u g 6 7 6 9 0 % 0 8 , , , , W 7.r.y.y.y.u.u.",
"u.y.y.y.y.e.U x s x i 7 7 7 7 q 0 % 8 : ; , - W 6.r.y.y.y.y.y.u.",
"u.y.y.y.y.o.c d a c j 5 u u 6 9 3 @ : : & ; R 7.e.y.y.y.y.y.y.u.",
"u.y.y.y.0.M n x c c j ..3.4.2.2.2.2.2.5.2.5.7.r.y.y.y.y.y.y.y.u.",
"y.y.y.y.=.m v c z x 3.7.r.y.t.y.t.y.y.t.y.y.y.y.y.y.y.y.y.y.y.y.",
"y.y.y.y.| b N c m  .7.y.y.y.y.y.y.y.y.y.y.y.y.y.y.y.y.y.y.y.y.y.",
"y.y.y.y.] / N k b ;.w.y.y.y.y.y.y.y.y.y.y.y.y.y.y.y.y.y.y.y.y.y.",
"y.y.y.y.] / c b n -.r.y.y.y.y.y.y.y.y.y.y.y.y.y.y.y.y.y.y.y.y.y.",
"y.y.y.y.O.b M b v ` r.y.y.y.y.y.y.y.y.y.y.y.y.y.y.y.y.y.y.y.y.y.",
"y.y.y.y.>.( l ~ k m :.y.y.y.y.y.y.y.y.y.y.y.y.y.y.y.y.y.y.y.y.y.",
"u.y.y.y.e._ l ^ c v k ` :.4.<.<.3.1.,.5.1.1.5.1.8.y.y.y.y.y.y.u.",
"u.y.y.y.y.+./ ^ ~ m x c y y 5 4 < % X # & - * = $.t.y.y.y.y.y.u.",
"u.y.y.y.y.t.[ ^ ! b z r d y 5 4 < + @ o   - O ; #.r.y.y.y.y.y.u.",
"u.u.y.y.y.y.t.{ ) / b v a y 5 5 2 < @ #     >   @.r.y.y.y.y.u.u.",
"u.u.y.y.y.y.y.t.+.( ~ v r p t 6 2 < + X o o ; . E r.y.y.y.y.u.u.",
"u.u.u.y.y.y.y.y.y.q.-.} I Y P J H G D C A A A Z %.r.y.y.y.u.u.u.",
"u.u.u.y.y.y.y.y.y.y.y.r.w.w.9.9.9.9.9.9.w.9.9.9.9.r.y.y.y.u.u.u.",
"u.u.u.u.y.y.y.y.y.y.y.y.y.y.y.y.y.y.y.y.y.y.y.y.y.y.y.y.u.u.u.u.",
"u.u.u.u.u.y.y.y.y.y.y.y.y.y.y.y.y.y.y.y.y.y.y.y.y.y.y.u.u.u.u.u.",
"u.u.u.u.u.u.y.y.y.y.y.y.y.y.y.y.y.y.y.y.y.y.y.y.y.y.u.u.u.u.u.u.",
"u.u.u.u.u.u.u.u.y.y.y.y.y.y.y.y.y.y.y.y.y.y.y.y.u.u.u.u.u.u.u.u.",
"u.u.u.u.u.u.u.u.u.u.y.y.y.y.y.y.y.y.y.y.y.y.u.u.u.u.u.u.u.u.u.u.",
"u.u.u.u.u.u.u.u.u.u.u.u.u.y.y.y.y.y.y.u.u.u.u.u.u.u.u.u.u.u.u.u."
};
