/* XPM */
static char *result[] = {
/* columns rows colors chars-per-pixel */
"16 16 90 1 ",
"  c #F00A2D",
". c #F31527",
"X c #F3122A",
"o c #F51F28",
"O c #EF0A30",
"+ c #F00F32",
"@ c #EF1035",
"# c #F41136",
"$ c #F91E34",
"% c #FA212E",
"& c #F72828",
"* c #F93525",
"= c #F93B26",
"- c #FC322E",
"; c #FC342F",
": c #FB3C29",
"> c #FC2934",
", c #FC2836",
"< c #F92139",
"1 c #FA213B",
"2 c #FC3330",
"3 c #FB4D25",
"4 c #FC452F",
"5 c #FB482C",
"6 c #FB5B24",
"7 c #FB5F28",
"8 c #FA5C3C",
"9 c #FB6925",
"0 c #FB6B2A",
"q c #FB6C29",
"w c #FA7127",
"e c #FA7A25",
"r c #FC7925",
"t c #FB712B",
"y c #FB742B",
"u c #FB6A30",
"i c #F0667B",
"p c #F4777F",
"a c #FB8126",
"s c #FB9430",
"d c #FA973D",
"f c #F98D42",
"g c #F8834B",
"h c #F99243",
"j c #F88C54",
"k c #F59A6A",
"l c #F5AF70",
"z c #EF878E",
"x c #F38D8F",
"c c #F08F8E",
"v c #F39485",
"b c #F39F80",
"n c #F1998D",
"m c #EE8591",
"M c #EF8691",
"N c #F28E90",
"B c #F38D92",
"V c #F38F92",
"C c #F39092",
"Z c #F39193",
"A c #F39596",
"S c #F2A48C",
"D c #ECA4AD",
"F c #F0ABA6",
"G c #EFBEA9",
"H c #EDABB2",
"J c #EFBCB0",
"K c #EED2BB",
"L c #EDC5C2",
"P c #EBC3C7",
"I c #ECC2C5",
"U c #ECC5C6",
"Y c #ECC4C7",
"T c #ECC5C7",
"R c #EDC7C7",
"E c #EDC9C2",
"W c #ECC8C6",
"Q c #EBC2C8",
"! c #EBC3C9",
"~ c #ECCFCF",
"^ c #EDD0C4",
"/ c #ECD5CA",
"( c #EBD7D7",
") c #EBD9D9",
"_ c #EBDCDA",
"` c #EBDFDD",
"' c #EADDDE",
"] c #EAE0E0",
"[ c #EAE4E4",
"{ c None",
/* pixels */
"{{{{{{[[[[{{{{{{",
"{{{{[[[[[[[[{{{{",
"{{[[[[[[[[[[[[{{",
"{{[[_FNxBVCZA~{{",
"{[[J84-2>,<1p([{",
"{[^u75:;%$#i([[{",
"[[kq0vLRUTY)[[[[",
"[[ftj)[[[[[[[[[[",
"[[hyg][[[[[[[[[[",
"[[lewbEWUPQ!'[[[",
"{[/sa93*oXO@H[[{",
"{[[Kdr6=&. +D[[{",
"{{[[`GSnczMmI[{{",
"{{[[[[[[[[[[[[{{",
"{{{{[[[[[[[[{{{{",
"{{{{{{[[[[{{{{{{"
};
