/* XPM */
static char *result[] = {
/* columns rows colors chars-per-pixel */
"64 64 207 2 ",
"   c #E9051E",
".  c #F63918",
"X  c #F8381F",
"o  c #EB0524",
"O  c #ED0B26",
"+  c #EE062B",
"@  c #EF092E",
"#  c #F10C26",
"$  c #F1062D",
"%  c #F20B2D",
"&  c #F31324",
"*  c #F91626",
"=  c #F51B24",
"-  c #F4152C",
";  c #F51A2A",
":  c #FA1B2B",
">  c #F8192A",
",  c #EE0632",
"<  c #EB063A",
"1  c #EE0B3B",
"2  c #ED0C35",
"3  c #F00632",
"4  c #F20B32",
"5  c #F40E39",
"6  c #EE1934",
"7  c #EF1239",
"8  c #EE1936",
"9  c #F31233",
"0  c #FB1C34",
"q  c #F3143B",
"w  c #F41B3D",
"e  c #F91C3D",
"r  c #FA1738",
"t  c #F62424",
"y  c #F62A27",
"u  c #F92E23",
"i  c #F62129",
"p  c #FB232C",
"a  c #F72A2A",
"s  c #FA2C2C",
"d  c #F82726",
"f  c #F73527",
"g  c #FA3426",
"h  c #FA3B24",
"j  c #FB332B",
"k  c #FB3B2D",
"l  c #EF263F",
"z  c #FB2333",
"x  c #FC2C35",
"c  c #FA233A",
"v  c #FC2C3B",
"b  c #F1263B",
"n  c #FC3234",
"m  c #FC3D32",
"M  c #FC333C",
"N  c #FB3A3E",
"B  c #F9471E",
"V  c #FA4C1D",
"C  c #F94217",
"Z  c #FA551D",
"A  c #F95C1C",
"S  c #F75C13",
"D  c #F76216",
"F  c #FB631D",
"G  c #FC6E1D",
"H  c #F86519",
"J  c #FC761E",
"K  c #FB4324",
"L  c #FA4B23",
"P  c #FB432C",
"I  c #FB4A2B",
"U  c #F75721",
"Y  c #FB5523",
"T  c #F55921",
"R  c #FB5B23",
"E  c #FB552C",
"W  c #FB5C2D",
"Q  c #F75A2C",
"!  c #FC4133",
"~  c #FC4931",
"^  c #FC5434",
"/  c #FB5C33",
"(  c #FC543B",
")  c #FC5A39",
"_  c #FA6323",
"`  c #FB6B24",
"'  c #FB632B",
"]  c #F7682D",
"[  c #FC6B2B",
"{  c #F76724",
"}  c #FC7425",
"|  c #FC7C25",
" . c #FC742B",
".. c #FC7C2A",
"X. c #F76030",
"o. c #FC6433",
"O. c #FC6B36",
"+. c #FA6B3C",
"@. c #FC643C",
"#. c #FC7132",
"$. c #FC7B34",
"%. c #FB7B3B",
"&. c #F97A3A",
"*. c #EE1E41",
"=. c #F51A42",
"-. c #F91F42",
";. c #F92141",
":. c #F1244B",
">. c #FB2B48",
",. c #FC3442",
"<. c #FB3C42",
"1. c #FC3E4A",
"2. c #FC364A",
"3. c #FB4145",
"4. c #FB4449",
"5. c #FB4C4C",
"6. c #F85F4F",
"7. c #FB5340",
"8. c #FA5351",
"9. c #F86544",
"0. c #F76F40",
"q. c #F6755B",
"w. c #ED5C73",
"e. c #EC5D7E",
"r. c #F05975",
"t. c #EF616A",
"y. c #F1666C",
"u. c #F26F67",
"i. c #F4756C",
"p. c #F47966",
"a. c #EE6474",
"s. c #EF6871",
"d. c #EE647A",
"f. c #EE6D7D",
"g. c #F06574",
"h. c #F26B75",
"j. c #F16B7B",
"k. c #F26778",
"l. c #F37472",
"z. c #F37872",
"x. c #FC8B1E",
"c. c #FC931E",
"v. c #FC9417",
"b. c #FC8426",
"n. c #FC8B25",
"m. c #FC852B",
"M. c #FC8A2B",
"N. c #FC9323",
"B. c #FC9729",
"V. c #FC8334",
"C. c #FC853C",
"Z. c #FC9336",
"A. c #FA9E3D",
"S. c #FA9A36",
"D. c #FC8843",
"F. c #F99A41",
"G. c #F58559",
"H. c #F7A558",
"J. c #F5836C",
"K. c #F38B6B",
"L. c #F5936C",
"P. c #F69A61",
"I. c #F58B73",
"U. c #F48577",
"Y. c #F59476",
"T. c #F49A78",
"R. c #F6A764",
"E. c #F4A978",
"W. c #F4B17F",
"Q. c #F57781",
"!. c #F28A8C",
"~. c #F48782",
"^. c #F2998E",
"/. c #EE8993",
"(. c #ED8795",
"). c #F08C94",
"_. c #F08C98",
"`. c #F29393",
"'. c #F29B92",
"]. c #F3A48C",
"[. c #F2AB89",
"{. c #F3A783",
"}. c #F3B484",
"|. c #F0A79E",
" X c #F1B799",
".X c #EFAEAC",
"XX c #F0ADA3",
"oX c #EFB7AB",
"OX c #EFB9A8",
"+X c #EEBEA6",
"@X c #EEBDBB",
"#X c #EEBBB3",
"$X c #F1C19B",
"%X c #EFC3AF",
"&X c #EFC9A9",
"*X c #F0C9A3",
"=X c #EECFB4",
"-X c #EDC0BB",
";X c #EED2BC",
":X c #EDC3C3",
">X c #ECCCCC",
",X c #ECD4CB",
"<X c #EBD4D3",
"1X c #EBDBD5",
"2X c #EBDCDC",
"3X c #EAE4E4",
"4X c None",
/* pixels */
"4X4X4X4X4X4X4X4X4X4X4X4X4X4X4X4X4X4X4X4X4X4X4X4X4X4X4X4X4X4X4X4X4X4X4X4X4X4X4X4X4X4X4X4X4X4X4X4X4X4X4X4X4X4X4X4X4X4X4X4X4X4X4X4X",
"4X4X4X4X4X4X4X4X4X4X4X4X4X4X4X4X4X4X4X4X4X4X4X4X3X3X3X3X3X3X3X3X3X3X3X3X3X3X3X3X4X4X4X4X4X4X4X4X4X4X4X4X4X4X4X4X4X4X4X4X4X4X4X4X",
"4X4X4X4X4X4X4X4X4X4X4X4X4X4X4X4X4X4X4X4X4X3X3X3X3X3X3X3X3X3X3X3X3X3X3X3X3X3X3X3X3X3X3X4X4X4X4X4X4X4X4X4X4X4X4X4X4X4X4X4X4X4X4X4X",
"4X4X4X4X4X4X4X4X4X4X4X4X4X4X4X4X4X4X4X3X3X3X3X3X3X3X3X3X3X3X3X3X3X3X3X3X3X3X3X3X3X3X3X3X3X4X4X4X4X4X4X4X4X4X4X4X4X4X4X4X4X4X4X4X",
"4X4X4X4X4X4X4X4X4X4X4X4X4X4X4X4X4X3X3X3X3X3X3X3X3X3X3X3X3X3X3X3X3X3X3X3X3X3X3X3X3X3X3X3X3X3X3X4X4X4X4X4X4X4X4X4X4X4X4X4X4X4X4X4X",
"4X4X4X4X4X4X4X4X4X4X4X4X4X4X4X3X3X3X3X3X3X3X3X3X3X3X3X3X3X3X3X3X3X3X3X3X3X3X3X3X3X3X3X3X3X3X3X3X3X4X4X4X4X4X4X4X4X4X4X4X4X4X4X4X",
"4X4X4X4X4X4X4X4X4X4X4X4X4X4X3X3X3X3X3X3X3X3X3X3X3X3X3X3X3X3X3X3X3X3X3X3X3X3X3X3X3X3X3X3X3X3X3X3X3X3X4X4X4X4X4X4X4X4X4X4X4X4X4X4X",
"4X4X4X4X4X4X4X4X4X4X4X4X3X3X3X3X3X3X3X3X3X3X3X3X3X3X3X3X3X3X3X3X3X3X3X3X3X3X3X3X3X3X3X3X3X3X3X3X3X3X3X3X4X4X4X4X4X4X4X4X4X4X4X4X",
"4X4X4X4X4X4X4X4X4X4X4X3X3X3X3X3X3X3X3X3X3X3X3X3X3X3X3X3X3X3X3X3X3X3X3X3X3X3X3X3X3X3X3X3X3X3X3X3X3X3X3X3X3X4X4X4X4X4X4X4X4X4X4X4X",
"4X4X4X4X4X4X4X4X4X4X3X3X3X3X3X3X3X3X3X3X3X3X3X3X3X3X3X3X3X3X3X3X3X3X3X3X3X3X3X3X3X3X3X3X3X3X3X3X3X3X3X3X3X3X4X4X4X4X4X4X4X4X4X4X",
"4X4X4X4X4X4X4X4X4X3X3X3X3X3X3X3X3X3X3X3X3X3X3X3X3X3X3X3X3X3X3X3X3X3X3X3X3X3X3X3X3X3X3X3X3X3X3X3X3X3X3X3X3X3X3X4X4X4X4X4X4X4X4X4X",
"4X4X4X4X4X4X4X4X3X3X3X3X3X3X3X3X3X3X3X3X3X3X3X3X3X3X3X3X3X3X3X3X3X3X3X3X3X3X3X3X3X3X3X3X3X3X3X3X3X3X3X3X3X3X3X3X4X4X4X4X4X4X4X4X",
"4X4X4X4X4X4X4X3X3X3X3X3X3X3X3X3X3X3X3X3X3X3X3X3X3X3X3X3X3X3X3X3X3X3X3X3X3X3X3X3X3X3X3X3X3X3X3X3X3X3X3X3X3X3X3X3X3X4X4X4X4X4X4X4X",
"4X4X4X4X4X4X4X3X3X3X3X3X3X3X3X3X3X3X3X3X3X3X3X3X3X3X3X3X3X3X3X3X3X3X3X3X3X3X3X3X3X3X3X3X3X3X3X3X3X3X3X3X3X3X3X3X3X4X4X4X4X4X4X4X",
"4X4X4X4X4X4X3X3X3X3X3X3X3X3X3X3X3X3X3X3X1X.X~.i.8.<.<.3.N N N <.4.3.,.1.,.3.4.4.5.5.3.5.8.3.5.4.5.8.5.8.8.'.3X3X3X3X4X4X4X4X4X4X",
"4X4X4X4X4X3X3X3X3X3X3X3X3X3X3X3X3X3X@XJ.^ ! k ! n x x x n n n x M M x v p <.,.<.M 3.: M M p N M v 3.N 5.!.2X2X3X3X3X3X4X4X4X4X4X",
"4X4X4X4X4X3X3X3X3X3X3X3X3X3X3X3X<Xu.I ^ ^ ! P k j z n s n n n x x M p v : M v M ,.M : c v v c <.v 1.,.Q.:X:X>X3X3X3X3X4X4X4X4X4X",
"4X4X4X4X3X3X3X3X3X3X3X3X3X3X3X|.7.K K / I P ~ k j s m j j k j x n M z z z v x x ,.e * c 0 v r >.c 2.l.:X:X:X2X3X3X3X3X3X4X4X4X4X",
"4X4X4X4X3X3X3X3X3X3X3X3X3X3X].K I ) K ' I P ( k s s m j k j j n v x z : x v z z ,.9 4 >.r c r ;.0 Q.:X:X:X3X3X3X3X3X3X3X4X4X4X4X",
"4X4X4X3X3X3X3X3X3X3X3X3X3XT.O.Y K @.Y o.P k ( h s j m g n j k x v x x * z v z p >.$ 4 >.r e -.r y.@X:X>X2X3X3X3X3X3X3X3X3X4X4X4X",
"4X4X4X3X3X3X3X3X3X3X3X3X].[ ' ' K W o.' I h I m s k m g k k s n x z z * 0 v 0 0 c $ r -.5 5 e r.:X:X:X3X3X3X3X3X3X3X3X3X3X4X4X4X",
"4X4X3X3X3X3X3X3X3X3X3X%X[ [ Y O.L E #.R / I P k u ! k k m j n x n p > : z z 0 0 e $ -.9 5 , k.:X:X:X2X3X3X3X3X3X3X3X3X3X3X3X4X4X",
"4X4X3X3X3X3X3X3X3X3X2X&. .` A o.Y Y ..Y E / P g g I K h k j j n n p = : c - - z 3 + -.$ 5 w.:X:X:X2X3X3X3X3X3X3X3X3X3X3X3X3X4X4X",
"4X4X3X3X3X3X3X3X3X3X{.[ } #.R E [ _  .Y E / K h h I K K m j n n x p * - e - 0 e , $ e $ r.:X:X:X3X3X3X3X3X3X3X3X3X3X3X3X3X3X4X4X",
"4X3X3X3X3X3X3X3X3X1X&.[ }  . .L [  . .R I W K 6.U.'.'.'.`.`.`.`.`.)./.).`./.).).(.!._._.:X:X:X2X3X3X3X3X3X3X3X3X3X3X3X3X3X3X3X4X",
"4X3X3X3X3X3X3X3X3X{.$. .} [ $.L '  .` O.E 9.XX-X:X:X:X:X:X:X:X:X:X:X:X:X:X:X:X:X:X:X:X:X:X:X2X3X3X3X3X3X3X3X3X3X3X3X3X3X3X3X3X4X",
"4X3X3X3X3X3X3X3X3X&. .` | { %.A R | _ o.q.@X:X:X>X<X2X3X3X2X2X3X3X2X3X2X3X2X3X3X2X3X3X3X3X3X3X3X3X3X3X3X3X3X3X3X3X3X3X3X3X3X3X4X",
"4X3X3X3X3X3X3X3X1X} V...| ` +.[ _ | _ +.@X:X:X<X3X3X3X3X3X3X3X3X3X3X3X3X3X3X3X3X3X3X3X3X3X3X3X3X3X3X3X3X3X3X3X3X3X3X3X3X3X3X3X4X",
"4X3X3X3X3X3X3X3X+X..V.| m...X. . ...[ ].:X:X2X3X3X3X3X3X3X3X3X3X3X3X3X3X3X3X3X3X3X3X3X3X3X3X3X3X3X3X3X3X3X3X3X3X3X3X3X3X3X3X3X4X",
"4X3X3X3X3X3X3X3X[.V.m.D m.$.W ` ....%.-X:X<X3X3X3X3X3X3X3X3X3X3X3X3X3X3X3X3X3X3X3X3X3X3X3X3X3X3X3X3X3X3X3X3X3X3X3X3X3X3X3X3X3X4X",
"4X3X3X3X3X3X3X3XE.M.V.b. .V.R { m.} G.:X:X2X3X3X3X3X3X3X3X3X3X3X3X3X3X3X3X3X3X3X3X3X3X3X3X3X3X3X3X3X3X3X3X3X3X3X3X3X3X3X3X3X3X4X",
"4X3X3X3X3X3X3X3XW.m.M.M. .&.[ H M.` L.:X<X3X3X3X3X3X3X3X3X3X3X3X3X3X3X3X3X3X3X3X3X3X3X3X3X3X3X3X3X3X3X3X3X3X3X3X3X3X3X3X3X3X3X3X",
"4X3X3X3X3X3X3X3XW.b.n.M.} Q  .} m.{ q.:X<X3X3X3X3X3X3X3X3X3X3X3X3X3X3X3X3X3X3X3X3X3X3X3X3X3X3X3X3X3X3X3X3X3X3X3X3X3X3X3X3X3X3X3X",
"4X3X3X3X3X3X3X3X}.M.M.b.V.Q } ..m._ &.:X2X3X3X3X3X3X3X3X3X3X3X3X3X3X3X3X3X3X3X3X3X3X3X3X3X3X3X3X3X3X3X3X3X3X3X3X3X3X3X3X3X3X3X3X",
"4X3X3X3X3X3X3X3X$Xn.n. .D.T ` M.| [ [ #X<X3X3X3X3X3X3X3X3X3X3X3X3X3X3X3X3X3X3X3X3X3X3X3X3X3X3X3X3X3X3X3X3X3X3X3X3X3X3X3X3X3X3X4X",
"4X3X3X3X3X3X3X3X;XM.M.D %.{ } n.} ` | p.<X3X3X3X3X3X3X3X3X3X3X3X3X3X3X3X3X3X3X3X3X3X3X3X3X3X3X3X3X3X3X3X3X3X3X3X3X3X3X3X3X3X3X4X",
"4X3X3X3X3X3X3X3X3XM.b.Z.]  .} n.A } b.+.XX3X3X3X3X3X3X3X3X3X3X3X3X3X3X3X3X3X3X3X3X3X3X3X3X3X3X3X3X3X3X3X3X3X3X3X3X3X3X3X3X3X3X4X",
"4X3X3X3X3X3X3X3X3XR.M.N.T [ m.N.{ ` | $.[ oX3X3X3X3X3X3X3X3X3X3X3X3X3X3X3X3X3X3X3X3X3X3X3X3X3X3X3X3X3X3X3X3X3X3X3X3X3X3X3X3X3X4X",
"4X3X3X3X3X3X3X3X3X&XN.N.{ T b.x.$.{ ..J F [ T.,X3X3X3X3X3X3X3X3X3X3X3X3X3X3X3X3X2X3X3X2X3X3X3X3X3X3X3X3X3X3X3X3X3X3X3X3X3X3X3X4X",
"4X3X3X3X3X3X3X3X3X3XA.M.{ M.c.x.H ] V.S Y [ A _ 9.q.J.J.p.i.i.u.i.y.y.t.w.w.g.w.r.r.Q.r.Q.d.a.w.Q.2X3X3X3X3X3X3X3X3X3X3X3X3X3X4X",
"4X4X3X3X3X3X3X3X3X3X*X} m.B.v.m...m.C.U W  ._ [ L L B L h g g u j = = & $ & 9 % 3 3 5 1 < q q < =.3X3X3X3X3X3X3X3X3X3X3X3X3X4X4X",
"4X4X3X3X3X3X3X3X3X3X3XG.B.N.v.M.b.n.m.V.A O.} ' K E C I h k u j a t ; ; # - ; % 3 + o @ o 8 8 1 l >X<X3X3X3X3X3X3X3X3X3X3X3X4X4X",
"4X4X3X3X3X3X3X3X3X3X3X1XA.c.N.n.n.x.M.| A  .} A L W L I h g g j d i = ; & ; - 9 2 + o w O 9 9 7 :.:X<X3X3X3X3X3X3X3X3X3X3X3X4X4X",
"4X4X4X3X3X3X3X3X3X3X3X3X;XB.M.n.x.x.M.D ` } } F ' Y E K h g X u t i & ; & i & % @ + + q 6 7 O =.:.:X<X3X3X3X3X3X3X3X3X3X3X4X4X4X",
"4X4X4X3X3X3X3X3X3X3X3X3X3X=XS.B.c.n.M.m.b.| | ` ' R E K h h h f a a t = = t ; % @ @ + + w 9 + 7 :.:X<X3X3X3X3X3X3X3X3X3X3X4X4X4X",
"4X4X4X4X3X3X3X3X3X3X3X3X3X3X=XS.N.c.n.M.b.} } G _ _ R L K h h j a s m = = & & # % 3 + o w 9 o 2 *.:X>X3X3X3X3X3X3X3X3X3X3X4X4X4X",
"4X4X4X4X3X3X3X3X3X3X3X3X3X3X3X,XH.c.c.M.m.| } G ` _ U L . h P j a j t = = ; & # % 3 % o 7 9   7 8 :X<X3X3X3X3X3X3X3X3X3X4X4X4X4X",
"4X4X4X4X4X3X3X3X3X3X3X3X3X3X3X3X2X XF.m.m.b.} G [ A Z Q L K P a a a t i & ; # O % 9 4 - 9 @   q 8 :X>X3X3X3X3X3X3X3X3X4X4X4X4X4X",
"4X4X4X4X4X3X3X3X3X3X3X3X3X3X3X3X3X3X<X XP.$.} G D A Z Z V L P u s u d ; = ; & # 9 - # 9 q o o =.8 :X>X3X3X3X3X3X3X3X3X4X4X4X4X4X",
"4X4X4X4X4X4X3X3X3X3X3X3X3X3X3X3X3X3X3X2X>X:XoX[.T.Y.K.Y.I.I.U.z.z.z.z.h.h.h.a.a.j.h.a.j.j.a.w.Q.f.:X<X3X3X3X3X3X3X3X4X4X4X4X4X4X",
"4X4X4X4X4X4X4X3X3X3X3X3X3X3X3X3X3X3X3X3X3X2X<X>X>X:X:X:X:X:X:X:X:X:X:X:X:X:X:X:X:X:X:X:X:X:X:X:X:X:X>X3X3X3X3X3X3X3X4X4X4X4X4X4X",
"4X4X4X4X4X4X4X3X3X3X3X3X3X3X3X3X3X3X3X3X3X3X3X3X2X2X2X2X2X2X2X2X2X2X2X2X2X2X2X2X2X2X1X2X2X2X2X2X2X2X2X3X3X3X3X3X3X4X4X4X4X4X4X4X",
"4X4X4X4X4X4X4X4X3X3X3X3X3X3X3X3X3X3X3X3X3X3X3X3X3X3X3X3X3X3X3X3X3X3X3X3X3X3X3X3X3X3X3X3X3X3X3X3X3X3X3X3X3X3X3X3X4X4X4X4X4X4X4X4X",
"4X4X4X4X4X4X4X4X4X3X3X3X3X3X3X3X3X3X3X3X3X3X3X3X3X3X3X3X3X3X3X3X3X3X3X3X3X3X3X3X3X3X3X3X3X3X3X3X3X3X3X3X3X3X3X4X4X4X4X4X4X4X4X4X",
"4X4X4X4X4X4X4X4X4X4X3X3X3X3X3X3X3X3X3X3X3X3X3X3X3X3X3X3X3X3X3X3X3X3X3X3X3X3X3X3X3X3X3X3X3X3X3X3X3X3X3X3X3X3X4X4X4X4X4X4X4X4X4X4X",
"4X4X4X4X4X4X4X4X4X4X4X3X3X3X3X3X3X3X3X3X3X3X3X3X3X3X3X3X3X3X3X3X3X3X3X3X3X3X3X3X3X3X3X3X3X3X3X3X3X3X3X3X3X4X4X4X4X4X4X4X4X4X4X4X",
"4X4X4X4X4X4X4X4X4X4X4X4X3X3X3X3X3X3X3X3X3X3X3X3X3X3X3X3X3X3X3X3X3X3X3X3X3X3X3X3X3X3X3X3X3X3X3X3X3X3X3X3X4X4X4X4X4X4X4X4X4X4X4X4X",
"4X4X4X4X4X4X4X4X4X4X4X4X4X4X3X3X3X3X3X3X3X3X3X3X3X3X3X3X3X3X3X3X3X3X3X3X3X3X3X3X3X3X3X3X3X3X3X3X3X3X3X4X4X4X4X4X4X4X4X4X4X4X4X4X",
"4X4X4X4X4X4X4X4X4X4X4X4X4X4X4X3X3X3X3X3X3X3X3X3X3X3X3X3X3X3X3X3X3X3X3X3X3X3X3X3X3X3X3X3X3X3X3X3X3X4X4X4X4X4X4X4X4X4X4X4X4X4X4X4X",
"4X4X4X4X4X4X4X4X4X4X4X4X4X4X4X4X4X3X3X3X3X3X3X3X3X3X3X3X3X3X3X3X3X3X3X3X3X3X3X3X3X3X3X3X3X3X3X4X4X4X4X4X4X4X4X4X4X4X4X4X4X4X4X4X",
"4X4X4X4X4X4X4X4X4X4X4X4X4X4X4X4X4X4X4X3X3X3X3X3X3X3X3X3X3X3X3X3X3X3X3X3X3X3X3X3X3X3X3X3X3X3X4X4X4X4X4X4X4X4X4X4X4X4X4X4X4X4X4X4X",
"4X4X4X4X4X4X4X4X4X4X4X4X4X4X4X4X4X4X4X4X4X3X3X3X3X3X3X3X3X3X3X3X3X3X3X3X3X3X3X3X3X3X3X4X4X4X4X4X4X4X4X4X4X4X4X4X4X4X4X4X4X4X4X4X",
"4X4X4X4X4X4X4X4X4X4X4X4X4X4X4X4X4X4X4X4X4X4X4X4X3X3X3X3X3X3X3X3X3X3X3X3X3X3X3X3X4X4X4X4X4X4X4X4X4X4X4X4X4X4X4X4X4X4X4X4X4X4X4X4X",
"4X4X4X4X4X4X4X4X4X4X4X4X4X4X4X4X4X4X4X4X4X4X4X4X4X4X4X4X4X4X4X3X3X3X4X4X4X4X4X4X4X4X4X4X4X4X4X4X4X4X4X4X4X4X4X4X4X4X4X4X4X4X4X4X"
};
